<?xml version="1.0" encoding="UTF-8"?>
<svg id="_Слой_2" data-name="Слой 2" xmlns="http://www.w3.org/2000/svg" viewBox="0 0 337.17 407.19">
  <defs>
    <style>
      .cls-1 {
        fill: #3c3c3b;
      }

      .cls-1, .cls-2, .cls-3, .cls-4 {
        stroke-width: 0px;
      }

      .cls-2 {
        fill: #fff;
      }

      .cls-3 {
        fill: #fdc813;
      }

      .cls-4 {
        fill: #efb204;
      }
    </style>
  </defs>
  <g id="_Слой_1-2" data-name="Слой 1">
    <g>
      <polygon class="cls-4" points="168.58 197.16 168.58 407.19 111.88 374.03 111.88 254.84 56.71 222.58 56.71 341.77 0 308.6 0 98.58 77.66 144 168.58 197.16"/>
      <polygon class="cls-3" points="168.58 197.16 168.58 407.19 225.28 374.03 225.28 254.84 280.45 222.58 280.45 341.77 337.16 308.6 337.16 98.58 259.5 144 168.58 197.16"/>
      <g>
        <g>
          <polygon class="cls-2" points="63.22 110.9 42.15 123.23 63.22 135.55 84.29 123.23 63.22 110.9"/>
          <polygon class="cls-2" points="126.44 73.94 105.37 61.61 84.29 73.94 105.37 86.26 126.44 73.94"/>
          <polygon class="cls-2" points="168.58 49.29 147.51 36.97 126.44 49.29 147.51 61.61 168.58 49.29"/>
          <polygon class="cls-2" points="210.73 123.23 231.8 135.55 252.87 123.23 231.8 110.9 210.73 123.23"/>
          <polygon class="cls-2" points="168.58 147.87 189.66 160.2 210.73 147.87 189.66 135.55 168.58 147.87"/>
          <polygon class="cls-2" points="147.51 135.55 126.44 147.87 147.51 160.2 168.58 147.87 147.51 135.55"/>
          <polygon class="cls-2" points="105.37 110.9 84.29 123.23 105.37 135.55 126.44 123.23 105.37 110.9"/>
          <polygon class="cls-2" points="168.58 73.94 147.51 61.61 126.44 73.94 147.51 86.26 168.58 73.94"/>
          <polygon class="cls-2" points="147.51 86.26 126.44 98.58 147.51 110.9 168.58 98.58 147.51 86.26"/>
          <polygon class="cls-2" points="189.66 110.9 210.73 98.58 189.66 86.26 168.58 98.58 189.66 110.9"/>
          <polygon class="cls-2" points="105.37 86.26 84.29 98.58 105.37 110.9 126.44 98.58 105.37 86.26"/>
          <polygon class="cls-2" points="189.66 86.26 210.73 73.94 189.66 61.61 168.58 73.94 189.66 86.26"/>
          <polygon class="cls-2" points="231.8 110.9 252.87 98.58 231.8 86.26 210.73 98.58 231.8 110.9"/>
          <polygon class="cls-2" points="168.58 123.23 189.66 135.55 210.73 123.23 189.66 110.9 168.58 123.23"/>
          <polygon class="cls-2" points="147.51 110.9 126.44 123.23 147.51 135.55 168.58 123.23 147.51 110.9"/>
          <polygon class="cls-2" points="126.44 49.29 105.37 36.97 84.29 49.29 105.37 61.61 126.44 49.29"/>
          <polygon class="cls-2" points="210.73 147.87 231.8 160.2 252.87 147.87 231.8 135.55 210.73 147.87"/>
          <polygon class="cls-2" points="252.87 123.23 273.95 135.55 295.02 123.23 273.95 110.9 252.87 123.23"/>
          <polygon class="cls-2" points="168.58 172.52 189.66 184.84 210.73 172.52 189.66 160.2 168.58 172.52"/>
          <polygon class="cls-2" points="273.95 110.9 295.02 98.58 273.95 86.26 252.87 98.58 273.95 110.9"/>
          <polygon class="cls-2" points="273.95 86.26 295.02 73.94 273.95 61.61 252.87 73.94 273.95 86.26"/>
          <polygon class="cls-2" points="189.66 36.97 210.73 24.65 189.66 12.32 168.58 24.65 189.66 36.97"/>
          <polygon class="cls-2" points="147.51 160.2 126.44 172.52 147.51 184.84 168.58 172.52 147.51 160.2"/>
          <polygon class="cls-2" points="231.8 61.61 252.87 49.29 231.8 36.97 210.73 49.29 231.8 61.61"/>
          <polygon class="cls-2" points="295.02 98.58 316.09 110.9 337.17 98.58 316.09 86.26 295.02 98.58"/>
          <polygon class="cls-2" points="189.66 61.61 210.73 49.29 189.66 36.97 168.58 49.29 189.66 61.61"/>
          <polygon class="cls-2" points="231.8 86.26 252.87 73.94 231.8 61.61 210.73 73.94 231.8 86.26"/>
          <polygon class="cls-2" points="168.58 24.65 147.51 12.32 126.44 24.65 147.51 36.97 168.58 24.65"/>
          <polygon class="cls-2" points="105.37 135.55 84.29 147.87 105.37 160.2 126.44 147.87 105.37 135.55"/>
          <polygon class="cls-2" points="84.29 73.94 63.22 61.61 42.15 73.94 63.22 86.26 84.29 73.94"/>
          <polygon class="cls-2" points="42.15 98.58 21.07 86.26 0 98.58 21.07 110.9 42.15 98.58"/>
          <polygon class="cls-2" points="63.22 86.26 42.15 98.58 63.22 110.9 84.29 98.58 63.22 86.26"/>
        </g>
        <g>
          <polygon class="cls-1" points="105.37 86.26 84.29 73.94 63.22 86.26 84.29 98.58 105.37 86.26"/>
          <polygon class="cls-1" points="42.15 98.58 21.07 110.9 42.15 123.23 63.22 110.9 42.15 98.58"/>
          <polygon class="cls-1" points="168.58 73.94 189.66 61.61 168.58 49.29 147.51 61.61 168.58 73.94"/>
          <polygon class="cls-1" points="147.51 61.61 126.44 49.29 105.37 61.61 126.44 73.94 147.51 61.61"/>
          <polygon class="cls-1" points="189.66 135.55 210.73 147.87 231.8 135.55 210.73 123.23 189.66 135.55"/>
          <polygon class="cls-1" points="147.51 160.2 168.58 172.52 189.66 160.2 168.58 147.87 147.51 160.2"/>
          <polygon class="cls-1" points="126.44 123.23 105.37 135.55 126.44 147.87 147.51 135.55 126.44 123.23"/>
          <polygon class="cls-1" points="189.66 110.9 210.73 123.23 231.8 110.9 210.73 98.58 189.66 110.9"/>
          <polygon class="cls-1" points="147.51 86.26 126.44 73.94 105.37 86.26 126.44 98.58 147.51 86.26"/>
          <polygon class="cls-1" points="168.58 98.58 189.66 86.26 168.58 73.94 147.51 86.26 168.58 98.58"/>
          <polygon class="cls-1" points="147.51 110.9 168.58 123.23 189.66 110.9 168.58 98.58 147.51 110.9"/>
          <polygon class="cls-1" points="231.8 110.9 252.87 123.23 273.95 110.9 252.87 98.58 231.8 110.9"/>
          <polygon class="cls-1" points="210.73 98.58 231.8 86.26 210.73 73.94 189.66 86.26 210.73 98.58"/>
          <polygon class="cls-1" points="147.51 135.55 168.58 147.87 189.66 135.55 168.58 123.23 147.51 135.55"/>
          <polygon class="cls-1" points="126.44 98.58 105.37 110.9 126.44 123.23 147.51 110.9 126.44 98.58"/>
          <polygon class="cls-1" points="231.8 135.55 252.87 147.87 273.95 135.55 252.87 123.23 231.8 135.55"/>
          <polygon class="cls-1" points="147.51 184.84 168.58 197.16 189.66 184.84 168.58 172.52 147.51 184.84"/>
          <polygon class="cls-1" points="189.66 160.2 210.73 172.52 231.8 160.2 210.73 147.87 189.66 160.2"/>
          <polygon class="cls-1" points="210.73 49.29 231.8 36.97 210.73 24.65 189.66 36.97 210.73 49.29"/>
          <polygon class="cls-1" points="168.58 24.65 189.66 12.32 168.58 0 147.51 12.32 168.58 24.65"/>
          <polygon class="cls-1" points="252.87 73.94 273.95 61.61 252.87 49.29 231.8 61.61 252.87 73.94"/>
          <polygon class="cls-1" points="273.95 110.9 295.02 123.23 316.09 110.9 295.02 98.58 273.95 110.9"/>
          <polygon class="cls-1" points="295.02 98.58 316.09 86.26 295.02 73.94 273.95 86.26 295.02 98.58"/>
          <polygon class="cls-1" points="147.51 36.97 126.44 24.65 105.37 36.97 126.44 49.29 147.51 36.97"/>
          <polygon class="cls-1" points="126.44 147.87 105.37 160.2 126.44 172.52 147.51 160.2 126.44 147.87"/>
          <polygon class="cls-1" points="168.58 49.29 189.66 36.97 168.58 24.65 147.51 36.97 168.58 49.29"/>
          <polygon class="cls-1" points="252.87 98.58 273.95 86.26 252.87 73.94 231.8 86.26 252.87 98.58"/>
          <polygon class="cls-1" points="210.73 73.94 231.8 61.61 210.73 49.29 189.66 61.61 210.73 73.94"/>
          <polygon class="cls-1" points="84.29 123.23 63.22 135.55 84.29 147.87 105.37 135.55 84.29 123.23"/>
          <polygon class="cls-1" points="105.37 61.61 84.29 49.29 63.22 61.61 84.29 73.94 105.37 61.61"/>
          <polygon class="cls-1" points="84.29 98.58 63.22 110.9 84.29 123.23 105.37 110.9 84.29 98.58"/>
          <polygon class="cls-1" points="63.22 86.26 42.15 73.94 21.07 86.26 42.15 98.58 63.22 86.26"/>
        </g>
      </g>
    </g>
  </g>
</svg>