<?xml version="1.0" encoding="UTF-8"?>
<svg id="_Слой_2" data-name="Слой 2" xmlns="http://www.w3.org/2000/svg" viewBox="0 0 124.13 87.87">
  <defs>
    <style>
      .cls-1 {
        fill: #fff;
        stroke-width: 0px;
      }
    </style>
  </defs>
  <g id="_Слой_1-2" data-name="Слой 1">
    <g>
      <polygon class="cls-1" points="124.13 10.23 124.13 78.09 88.36 44.69 124.13 10.23"/>
      <path class="cls-1" d="m118.9,87.46c-.78.28-1.57.41-2.35.41H7.95c-.26,0-.53-.02-.82-.06l36.61-35.28,14.94,13.91c.97.91,2.24,1.41,3.57,1.41s2.65-.52,3.63-1.46l14.99-14.42,38.02,35.49Z"/>
      <path class="cls-1" d="m119.17.51l-56.98,54.89L4,1.12c1.22-.73,2.59-1.12,3.94-1.12h108.6c.88,0,1.76.17,2.63.51Z"/>
      <polygon class="cls-1" points="35.96 45.38 0 80.01 0 11.9 35.96 45.38"/>
    </g>
  </g>
</svg>