<?xml version="1.0" encoding="UTF-8"?>
<svg id="_Слой_2" data-name="Слой 2" xmlns="http://www.w3.org/2000/svg" viewBox="0 0 290.06 200.21">
  <defs>
    <style>
      .cls-1 {
        fill: #040608;
        stroke-width: 0px;
      }
    </style>
  </defs>
  <g id="_Слой_1-2" data-name="Слой 1">
    <g>
      <path class="cls-1" d="m238.37,151.2h-67.47c-4.04,0-7.3,3.26-7.3,7.3l-.06,1.36-37.09-.06v-1.31c0-4.04-3.26-7.3-7.3-7.3H51.8c-4.04,0-7.3,3.26-7.3,7.3s3.26,7.3,7.3,7.3h61.42c2.31,5.04,7.42,8.6,13.29,8.6h37.03c5.93,0,11.04-3.56,13.29-8.6h61.48c4.04,0,7.3-3.26,7.3-7.3.06-4.04-3.2-7.3-7.24-7.3Z"/>
      <path class="cls-1" d="m282.87,151.2h-13.77V19.05c0-.24,0-.47-.06-.71-1.01-10.44-9.49-18.34-19.64-18.34H40.05c-10.5,0-19.05,8.54-19.05,19.05v132.15H7.3c-4.04,0-7.3,3.26-7.3,7.3v13.77c0,15.43,12.52,27.95,27.95,27.95h234.16c15.43,0,27.95-12.52,27.95-27.95v-13.77c.12-4.04-3.15-7.3-7.18-7.3Zm-7.24,21.07c0,7.42-6.05,13.41-13.41,13.41H28.01c-7.42,0-13.47-6.05-13.47-13.41v-6.47h13.71c4.04,0,7.3-3.26,7.3-7.3V19.05c0-2.49,2.02-4.51,4.51-4.51h209.35c2.55,0,4.75,2.14,5.16,4.93v138.97c0,4.04,3.32,7.3,7.3,7.3h13.77v6.53Z"/>
      <path class="cls-1" d="m75.78,125.68h92.45c4.04,0,7.3-3.26,7.3-7.3s-3.26-7.3-7.3-7.3h-92.45c-4.04,0-7.3,3.26-7.3,7.3s3.26,7.3,7.3,7.3Z"/>
      <path class="cls-1" d="m199.03,125.68h15.37c4.04,0,7.3-3.26,7.3-7.3s-3.26-7.3-7.3-7.3h-15.37c-4.04,0-7.3,3.26-7.3,7.3s3.26,7.3,7.3,7.3Z"/>
      <path class="cls-1" d="m75.78,91.38h92.45c4.04,0,7.3-3.26,7.3-7.3s-3.26-7.3-7.3-7.3h-92.45c-4.04,0-7.3,3.26-7.3,7.3,0,4.04,3.26,7.3,7.3,7.3Z"/>
      <path class="cls-1" d="m199.03,91.38h15.37c4.04,0,7.3-3.26,7.3-7.3s-3.26-7.3-7.3-7.3h-15.37c-4.04,0-7.3,3.26-7.3,7.3s3.26,7.3,7.3,7.3Z"/>
      <path class="cls-1" d="m75.78,57.09h92.45c4.04,0,7.3-3.26,7.3-7.3s-3.26-7.3-7.3-7.3h-92.45c-4.04,0-7.3,3.26-7.3,7.3,0,4.04,3.26,7.3,7.3,7.3Z"/>
      <path class="cls-1" d="m199.03,57.09h15.37c4.04,0,7.3-3.26,7.3-7.3s-3.26-7.3-7.3-7.3h-15.37c-4.04,0-7.3,3.26-7.3,7.3s3.26,7.3,7.3,7.3Z"/>
    </g>
  </g>
</svg>