<?xml version="1.0" encoding="UTF-8"?>
<svg id="_Слой_2" data-name="Слой 2" xmlns="http://www.w3.org/2000/svg" viewBox="0 0 119.8 119.06">
  <defs>
    <style>
      .cls-1 {
        fill: #fff;
        fill-rule: evenodd;
        stroke-width: 0px;
      }
    </style>
  </defs>
  <g id="_Слой_1-2" data-name="Слой 1">
    <path class="cls-1" d="m37.36,107.36c-2.11-5.51-3.8-11.8-5.08-18.71H7.55c7.42,13.29,19.7,23.33,34.18,27.98-1.59-2.72-3.05-5.83-4.37-9.27Zm-6.64-66.17H2.85c-3.8,11.86-3.8,24.82,0,36.67h27.87c-1.28-12.17-1.28-24.49,0-36.67Zm47.49,0h-36.63c-.7,6.08-1.04,12.24-1.03,18.33v.27c0,6.01.34,12.09,1.03,18.06h36.63c.7-6.07,1.04-12.23,1.03-18.33.01-6.1-.33-12.26-1.03-18.33Zm38.73,0h-27.87c.65,6.08.97,12.24.96,18.33v.28c0,6-.32,12.07-.96,18.05h27.87c3.8-11.85,3.8-24.81,0-36.67ZM78.07,2.44c1.59,2.72,3.06,5.82,4.37,9.26,2.11,5.52,3.81,11.81,5.08,18.71h24.73c-7.42-13.29-19.7-23.33-34.18-27.97Zm-5.72,13.1c-3.65-9.59-8.42-15.54-12.45-15.54s-8.8,5.95-12.46,15.54c-1.68,4.4-3.07,9.39-4.17,14.86h33.25c-1.09-5.47-2.5-10.47-4.18-14.86ZM7.55,30.4h24.73c1.26-6.9,2.97-13.19,5.08-18.71,1.31-3.44,2.77-6.55,4.37-9.26C27.25,7.08,14.98,17.11,7.55,30.4Zm35.72,58.26c1.09,5.46,2.49,10.45,4.17,14.85,3.66,9.59,8.42,15.54,12.46,15.54s8.8-5.95,12.46-15.54c1.68-4.4,3.07-9.39,4.17-14.85h-33.25Zm44.24,0c-1.27,6.9-2.97,13.19-5.08,18.7-1.31,3.44-2.77,6.55-4.37,9.27,14.48-4.65,26.76-14.69,34.18-27.97h-24.73Z"/>
  </g>
</svg>