<?xml version="1.0" encoding="UTF-8"?>
<svg id="_Слой_2" data-name="Слой 2" xmlns="http://www.w3.org/2000/svg" viewBox="0 0 141.73 80.86">
  <defs>
    <style>
      .cls-1 {
        fill: #fff;
        stroke-width: 0px;
      }
    </style>
  </defs>
  <g id="_Слой_1-2" data-name="Слой 1">
    <path class="cls-1" d="m140.98,73.03c-.17-.37-.33-.68-.48-.92-2.46-4.43-7.16-9.86-14.09-16.31l-.15-.15-.07-.07-.07-.07h-.07c-3.15-3-5.14-5.02-5.98-6.05-1.53-1.97-1.87-3.96-1.03-5.98.59-1.52,2.81-4.75,6.64-9.67,2.02-2.61,3.62-4.7,4.8-6.27,8.51-11.32,12.2-18.55,11.07-21.7l-.44-.74c-.3-.44-1.06-.85-2.29-1.22-1.23-.37-2.81-.43-4.72-.18l-21.25.15c-.34-.12-.84-.11-1.48.04-.64.15-.96.22-.96.22l-.37.18-.29.22c-.25.15-.52.41-.81.77-.29.37-.54.8-.74,1.29-2.31,5.95-4.94,11.49-7.9,16.6-1.82,3.05-3.49,5.69-5.02,7.93-1.52,2.24-2.8,3.89-3.84,4.94-1.03,1.06-1.97,1.91-2.8,2.55-.84.64-1.48.91-1.92.81-.44-.1-.86-.2-1.26-.3-.69-.44-1.24-1.05-1.66-1.81-.42-.76-.7-1.72-.85-2.88-.15-1.16-.23-2.15-.26-2.99-.02-.84-.01-2.02.04-3.54.05-1.53.07-2.56.07-3.1,0-1.87.04-3.9.11-6.09.07-2.19.13-3.92.19-5.2.05-1.28.07-2.63.07-4.06s-.09-2.55-.26-3.36c-.17-.81-.43-1.6-.77-2.36-.35-.76-.85-1.35-1.51-1.77-.66-.42-1.49-.75-2.47-1-2.61-.59-5.93-.91-9.96-.96-9.15-.1-15.03.49-17.64,1.77-1.03.54-1.97,1.28-2.8,2.21-.89,1.08-1.01,1.67-.37,1.77,2.95.44,5.04,1.5,6.27,3.17l.44.89c.34.64.69,1.77,1.03,3.39.34,1.62.57,3.42.66,5.39.25,3.59.25,6.67,0,9.22-.25,2.56-.48,4.55-.7,5.98-.22,1.43-.55,2.58-1,3.47-.44.89-.74,1.43-.89,1.62-.15.2-.27.32-.37.37-.64.25-1.3.37-1.99.37s-1.53-.34-2.51-1.03c-.98-.69-2-1.64-3.06-2.84-1.06-1.21-2.25-2.89-3.58-5.06-1.33-2.16-2.71-4.72-4.13-7.67l-1.18-2.14c-.74-1.38-1.75-3.38-3.03-6.01-1.28-2.63-2.41-5.18-3.39-7.64-.39-1.03-.98-1.82-1.77-2.36l-.37-.22c-.25-.2-.64-.41-1.18-.63-.54-.22-1.11-.38-1.7-.48l-20.22.15c-2.07,0-3.47.47-4.21,1.4l-.3.44c-.15.25-.22.64-.22,1.18s.15,1.21.44,1.99c2.95,6.94,6.16,13.63,9.63,20.07,3.47,6.44,6.48,11.64,9.04,15.57,2.56,3.94,5.17,7.65,7.82,11.14,2.66,3.49,4.42,5.73,5.28,6.72.86.99,1.54,1.72,2.03,2.21l1.85,1.77c1.18,1.18,2.91,2.6,5.2,4.24,2.29,1.65,4.82,3.27,7.6,4.87,2.78,1.6,6.01,2.9,9.7,3.91,3.69,1.01,7.28,1.41,10.77,1.22h8.49c1.72-.15,3.03-.69,3.91-1.62l.29-.37c.2-.29.38-.75.55-1.36.17-.61.26-1.29.26-2.03-.05-2.12.11-4.02.48-5.72.37-1.7.79-2.98,1.26-3.84.47-.86,1-1.59,1.59-2.18.59-.59,1.01-.95,1.26-1.07.25-.12.44-.21.59-.26,1.18-.39,2.57-.01,4.17,1.14,1.6,1.16,3.1,2.58,4.5,4.28,1.4,1.7,3.09,3.6,5.05,5.72,1.97,2.12,3.69,3.69,5.17,4.72l1.48.89c.99.59,2.26,1.13,3.84,1.62,1.57.49,2.95.61,4.13.37l18.89-.29c1.87,0,3.32-.31,4.35-.92,1.03-.61,1.65-1.29,1.85-2.03.2-.74.21-1.57.04-2.51-.17-.93-.35-1.59-.52-1.95Z"/>
  </g>
</svg>