<?xml version="1.0" encoding="UTF-8"?>
<svg id="_Слой_2" data-name="Слой 2" xmlns="http://www.w3.org/2000/svg" viewBox="0 0 239.48 239.48">
  <g id="_Слой_1-2" data-name="Слой 1">
    <path class="cls-1" d="m155.57,114.35l27.07-26.96,22.27-2.95c2.53-.33,4.72-1.89,5.86-4.17l27.9-55.72c1.49-2.96.91-6.52-1.43-8.86l-13.44-13.44c-2.34-2.33-5.89-2.91-8.85-1.44l-55.8,27.84c-2.29,1.14-3.85,3.33-4.19,5.86l-2.94,22.24-27.07,26.97-7.21-7.21c-3.12-3.12-4.63-7.57-4.04-11.93,2.33-17.72-3.58-35.16-16.22-47.86C84.73,3.99,66.49-2.03,48.7.62c-3.75.54-6.84,3.11-8.04,6.73-1.21,3.62-.29,7.54,2.4,10.23l15.16,15.15c2.17,2.17,3.36,5.04,3.35,8.1,0,3.03-1.19,5.87-3.35,8.02l-9.32,9.32c-2.16,2.16-5.03,3.35-8.08,3.35h-.02c-3.03,0-5.88-1.19-8.03-3.36l-15.2-15.15c-2.66-2.66-6.53-3.59-10.11-2.43-3.6,1.16-6.22,4.2-6.82,7.93l-.02.1c-2.65,17.83,3.37,36.07,16.12,48.82,12.69,12.63,30.13,18.54,47.87,16.21,4.34-.59,8.8.93,11.91,4.04l7.16,7.17-6.63,6.61c-6.64-5.18-16.29-4.72-22.39,1.38l-43.71,43.68c-14.32,14.32-14.6,37.6-.62,51.91,6.92,7.08,16.17,11.01,26.05,11.07h.22c9.8,0,19.01-3.81,25.96-10.76l44-43.97c3.2-3.2,4.96-7.45,4.96-11.97,0-3.96-1.35-7.72-3.84-10.74l6.6-6.58,75.49,75.51c5.66,5.66,13.09,8.49,20.54,8.49s14.94-2.85,20.63-8.54c11.33-11.33,11.36-29.79.05-41.16l-75.42-75.41Zm-69.13-6.59c-6.19-6.19-15.05-9.19-23.68-8.03-13.38,1.76-26.54-2.7-36.11-12.23-7.67-7.68-12.05-17.62-12.58-28.17l8.77,8.74c4.78,4.81,11.15,7.47,17.94,7.48h.05c6.79,0,13.19-2.65,18-7.46l9.3-9.3c4.81-4.78,7.47-11.15,7.48-17.94.01-6.81-2.64-13.22-7.46-18.04l-8.74-8.74c10.53.53,20.47,4.91,28.14,12.56,9.54,9.58,14,22.74,12.24,36.09-1.17,8.65,1.83,17.51,8.03,23.7l7.19,7.19-21.38,21.31-7.18-7.18Zm10.2,67.07l-44,43.97c-4.29,4.29-9.98,6.65-16.04,6.65h-.14c-6.1-.04-11.82-2.47-16.1-6.84-8.63-8.83-8.41-23.26.5-32.17l43.7-43.68c.57-.57,1.31-.85,2.06-.85s1.49.28,2.05.84l3.5,3.48,15.72,15.71-.02.02,8.76,8.76c.74.74.85,1.6.85,2.05s-.11,1.31-.85,2.05Zm1.2-22.79l-10.77-10.77,76.37-76.11c1.19-1.19,1.97-2.76,2.19-4.43l2.78-21.04,48.69-24.29,6.96,6.96-24.34,48.61-21.06,2.78c-1.66.22-3.23.99-4.41,2.17l-76.42,76.11Zm123.18,68.96c-5.89,5.89-15.46,5.91-21.32.05l-75.47-75.49,21.4-21.31,75.43,75.42c5.86,5.89,5.84,15.46-.03,21.33Z"/>
  </g>
</svg>