<?xml version="1.0" encoding="UTF-8"?>
<svg  data-name="Слой 2" xmlns="http://www.w3.org/2000/svg" viewBox="0 0 296.7 231.99">
 
  <g  data-name="Слой 1">
    <g>
      <path class="cls-1" d="m125.79,130.14c.07,2.18-.71,4.24-2.2,5.83-1.48,1.58-3.5,2.49-5.67,2.56-2.16.08-4.24-.71-5.8-2.17-5.17-4.97-11.45-8.7-18.28-10.87v-.6l-2.12-.44c-.21-.04-.41-.09-.61-.15-4.3-1.25-6.79-5.76-5.55-10.06,1.24-4.3,5.76-6.79,10.11-5.54,10.36,2.77,19.87,8.21,27.56,15.77,1.58,1.49,2.49,3.5,2.56,5.67Z"/>
      <path class="cls-1" d="m125.79,86.99c.07,2.18-.71,4.25-2.2,5.83-1.48,1.58-3.5,2.5-5.67,2.56-2.19.05-4.24-.71-5.8-2.17-5.17-4.97-11.45-8.7-18.28-10.86v-.61l-2.12-.44c-.2-.04-.41-.09-.61-.15-4.31-1.24-6.79-5.76-5.55-10.06.6-2.08,1.98-3.81,3.88-4.86,1.9-1.04,4.09-1.29,6.23-.67,10.36,2.76,19.87,8.2,27.56,15.76,1.58,1.49,2.49,3.5,2.56,5.67Z"/>
      <path class="cls-1" d="m293.05,66.18h-.01c-54.42-36.25-114.41-16-137.67-5.62l-2.43,1.09-1.09-2.43c-7.68-17.16-24.63-47.33-51.82-56.6-5.66-1.76-11.49-2.62-17.29-2.62-12.77,0-25.4,4.17-35.78,12.13l-.16.11c-2.28,1.5-3.64,4.02-3.66,6.75v30.11l-2.02.5c-13.37,3.32-25.98,8.86-37.46,16.47C1.35,67.59-.02,70.14,0,72.89v151.03c.02,4.46,3.66,8.07,8.12,8.07h.04c1.58-.01,3.11-.47,4.43-1.34,23.04-15.36,50.49-20.78,81.55-16.08,16.1,2.43,32.51,7.53,48.78,15.14.46.22.82.39,1.07.5h7.78c.48-.14.95-.33,1.4-.56l.64-.3c.1-.05.22-.11.35-.18,17.5-8.69,78.59-34.33,130.54.58,1.86,1.04,4.02,1.3,6.09.74,2.09-.57,3.84-1.92,4.91-3.8.53-.91.86-1.9,1-2.93V72.91c0-2.71-1.38-5.23-3.65-6.73ZM125.21,205.39c-34.26-12.58-71.65-11.67-105.27,2.54l-3.7,1.57V77.32l1.32-.78c6.96-4.09,14.41-7.37,22.14-9.74l3.44-1.06v104.25c.01,2.16.87,4.19,2.41,5.72,1.53,1.51,3.56,2.35,5.72,2.35h.04c1.54-.01,3.03-.45,4.33-1.28,10.89-8.75,25.41-11.69,38.86-7.84l.4.15c14.43,6.81,26.36,18.38,33.6,32.59l3.09,6.05-6.38-2.34Zm15.02-15.95l-4.87-7.17c-8.72-12.84-20.96-22.64-35.4-28.34-5.27-1.83-10.78-2.79-16.36-2.85-7.05.01-13.98,1.33-20.57,3.91l-3.64,1.43V23.58l1.2-.79c10.1-6.66,22.52-8.42,34.07-4.85,22.66,7.73,39.2,38.56,45.4,55.56l.17.45v115.49Zm140.23,20.2l-3.78-1.74c-45.88-21.2-92.71-8.19-116.54,1.45l-3.67,1.48V77.79l1.54-.72c8.78-4.11,26.76-11.41,48.56-14.14,27.1-3.39,51.52,1.19,72.58,13.62l1.31.77v132.32Z"/>
      <path class="cls-1" d="m253.65,100.55c-.38,2.18-1.59,4.08-3.4,5.35-1.81,1.27-4.01,1.76-6.22,1.38-16.58-2.74-33.3-2.28-49.7,1.36h-1.97l-.28.02c-2.18.23-4.3-.41-6-1.78-1.7-1.38-2.76-3.33-2.99-5.5-.47-4.49,2.8-8.52,7.28-9l.3-.04c10.46-2.31,21.04-3.47,31.63-3.47,8.21,0,16.43.7,24.62,2.09,4.5.78,7.52,5.09,6.73,9.59Z"/>
      <path class="cls-1" d="m253.54,154.37c-.38,2.19-1.59,4.09-3.4,5.36-1.81,1.27-4.01,1.76-6.22,1.38-16.57-2.74-33.29-2.28-49.7,1.36h-1.97l-.27.02c-2.18.23-4.31-.41-6.01-1.78-1.7-1.38-2.76-3.33-2.99-5.51-.47-4.48,2.8-8.52,7.29-8.99l.3-.05c10.54-2.35,21.21-3.52,31.89-3.52,7.38,0,14.77.56,22.14,1.68v.08l2.21.38c2.18.38,4.08,1.59,5.35,3.4,1.27,1.82,1.76,4.01,1.38,6.19Z"/>
    </g>
  </g>
</svg>