<?xml version="1.0" encoding="UTF-8"?>
<svg id="_Слой_2" data-name="Слой 2" xmlns="http://www.w3.org/2000/svg" viewBox="0 0 113.39 93.93">
  <defs>
    <style>
      .cls-1 {
        fill: #fff;
        fill-rule: evenodd;
        stroke-width: 0px;
      }
    </style>
  </defs>
  <g id="_Слой_1-2" data-name="Слой 1">
    <path id="Path-3" class="cls-1" d="m7.79,40.44c30.43-13.26,50.72-22,60.87-26.22C97.64,2.16,103.67.07,107.59,0c.86-.02,2.79.2,4.04,1.21,1.86,1.51,1.87,4.77,1.66,6.94-1.57,16.5-8.37,56.55-11.83,75.04-1.46,7.82-4.34,10.44-7.13,10.7-6.06.56-10.66-4.01-16.53-7.85-9.19-6.02-14.38-9.77-23.29-15.65-10.3-6.79-3.62-10.52,2.25-16.62,1.54-1.6,28.24-25.89,28.76-28.09.06-.28.12-1.3-.49-1.85-.61-.54-1.51-.36-2.16-.21-.92.21-15.6,9.91-44.02,29.1-4.17,2.86-7.94,4.25-11.32,4.18-3.73-.08-10.9-2.11-16.22-3.84C4.77,50.94-.43,49.81.03,46.2c.24-1.88,2.82-3.8,7.76-5.77h0Z"/>
  </g>
</svg>